<svg width="1412" height="212" viewBox="0 0 1412 212" xmlns="http://www.w3.org/2000/svg"><title>-Clouds Layer</title><g stroke="#FFF" stroke-width="2" fill="#F7F7F7" fill-rule="evenodd" stroke-linecap="round" stroke-linejoin="round"><path d="M1239.107 34.291c2.734 2.893 6.598 4.71 10.893 4.71 8.284 0 15-6.717 15-15 0-8.286-6.716-15-15-15-6.593 0-12.18 4.26-14.192 10.172"/><path d="M1235.808 19.173a10.636 10.636 0 0 0-5.568-1.576c-5.91 0-10.7 4.792-10.7 10.702S1224.33 39 1230.24 39H1250M899.107 84.291c2.734 2.893 6.598 4.71 10.893 4.71 8.284 0 15-6.717 15-15 0-8.286-6.716-15-15-15-6.593 0-12.18 4.26-14.192 10.172"/><path d="M895.808 69.173a10.636 10.636 0 0 0-5.568-1.576c-5.91 0-10.7 4.792-10.7 10.702S884.33 89 890.24 89H910M120.755 58.355c1.786-3.42 5.36-5.757 9.485-5.757 2.043 0 3.945.582 5.568 1.575C137.82 48.26 143.407 44 150 44c8.284 0 15 6.716 15 15 0 8.284-6.716 15-15 15-4.295 0-8.159-1.815-10.893-4.71C141.841 72.186 145.705 74 150 74h-19.76a10.64 10.64 0 0 1-6.407-2.145"/><path d="M132.166 74h-13.772a8 8 0 1 1 2.361-15.645"/><g><path d="M1355.755 88.355c1.786-3.42 5.36-5.757 9.485-5.757 2.043 0 3.945.582 5.568 1.575C1372.82 78.26 1378.407 74 1385 74c8.284 0 15 6.716 15 15 0 8.284-6.716 15-15 15-4.295 0-8.159-1.815-10.893-4.71 2.734 2.895 6.598 4.71 10.893 4.71h-19.76a10.64 10.64 0 0 1-6.407-2.145"/><path d="M1367.166 104h-13.772a8 8 0 1 1 2.361-15.645"/></g></g></svg>