<svg width="597" height="113" viewBox="0 0 597 113" xmlns="http://www.w3.org/2000/svg"><title>Group 30</title><g fill="none" fill-rule="evenodd"><path d="M87.043 1.876l.042 50.958L12.25 37.001s9.917-20 33.042-27.875 41.75-7.25 41.75-7.25" fill="#FFF"/><path d="M86.418 52.889l-30.316-6.433-5.205-1.104-29.98-6.362 3.5-7.508 12-10.544 17.75-8.307s6.334 2.62 11.918 1.12c5.583-1.5 9.583-5.114 9.583-5.114l11.25-.32-.5 44.572z" fill="#FF0083"/><path d="M20.876 38.46l3.744-6.408 12.842-11.468 17.817-8.325s5.514 2.493 11.14 1.118c5.624-1.375 9.624-5.102 9.624-5.102l10.875.04m0-6.814c-32.552-.107-62.641 13.267-74.77 35.327" stroke="#4A4A4A" stroke-width="3" stroke-linecap="round" stroke-linejoin="round"/><path d="M86.918 1.501l.106 54.532" stroke="#4A4A4A" stroke-width="2" stroke-linecap="round" stroke-linejoin="round"/><path d="M67.418 6.84c0 .566-.672 1.022-1.5 1.022s-1.5-.457-1.5-1.022c0-.564.672-1.021 1.5-1.021s1.5.457 1.5 1.021m-28 10.339c0 .565-.672 1.022-1.5 1.022s-1.5-.457-1.5-1.022.672-1.022 1.5-1.022 1.5.457 1.5 1.022" fill="#4A4A4A"/><path d="M74.972 21.02c0 2.4-2.854 4.344-6.375 4.344-3.52 0-6.375-1.945-6.375-4.345 0-2.4 2.854-4.345 6.375-4.345s6.375 1.945 6.375 4.345m-5.614 19.273c0 1.8-2.14 3.26-4.783 3.26-2.64 0-4.782-1.46-4.782-3.26 0-1.801 2.141-3.26 4.782-3.26 2.642 0 4.783 1.459 4.783 3.26" fill="#B40060"/><path d="M50.66 36.596c-3.723 0-6.742-2.058-6.742-4.596 0-2.54 3.019-4.596 6.743-4.596S57.404 29.46 57.404 32m-.844 14.55l29.857 6.339" stroke="#4A4A4A" stroke-width="2" stroke-linecap="round"/><path d="M11.584 37.001l39.417 8.401" stroke="#4A4A4A" stroke-width="2" stroke-linecap="round" stroke-linejoin="round"/><path d="M87.084 52.835l34.667-7.667s3.916-2.166 6.416-2.416c2.5-.25 5.584.416 5.584.416l28.166-6s-9.875-20.416-30.75-27.541-44.125-7.75-44.125-7.75l.042 50.958" fill="#FFF"/><path fill="#ECECEC" d="M86.418 52.889l67-13.9-2.5-6.07-13-11.821-17.75-8.307-17.497-3.682-3.003-.632-3.628-.045-9.122-.114z"/><path d="M124.579 15.986c0 3.449-4.102 6.245-9.161 6.245-5.06 0-9.161-2.796-9.161-6.245 0-1.944 1.303-3.68 3.346-4.826" fill="#F8F8F8"/><path stroke="#4A4A4A" stroke-width="3" stroke-linecap="round" stroke-linejoin="round" d="M108.568 10.575l11.451 2.318 17.898 8.254 12.347 11.385 3.301 6.621M86.918 8.315l12.062.319m62.521 28.367c-10.267-21.899-38.334-35.5-74.583-35.5"/><path d="M87.024 52.58L86.918 1.5" stroke="#4A4A4A" stroke-width="2" stroke-linecap="round" stroke-linejoin="round"/><path d="M144.584 20.587c0 .565-.672 1.022-1.5 1.022s-1.5-.457-1.5-1.022.672-1.022 1.5-1.022 1.5.457 1.5 1.022" fill="#4A4A4A"/><path d="M108.45 44.445c0 1.8-2.14 3.26-4.782 3.26s-4.783-1.46-4.783-3.26c0-1.801 2.142-3.26 4.783-3.26 2.641 0 4.782 1.459 4.782 3.26m18.592-6.113c0 1.801-2.141 3.26-4.783 3.26-2.641 0-4.782-1.459-4.782-3.26 0-1.8 2.14-3.26 4.782-3.26s4.783 1.46 4.783 3.26" fill="#F8F8F8"/><path d="M123.745 27.402c0 1.317-1.566 2.384-3.497 2.384-1.93 0-3.497-1.067-3.497-2.384s1.566-2.384 3.497-2.384c1.931 0 3.497 1.067 3.497 2.384z" stroke="#4A4A4A" stroke-width="2"/><path d="M87.024 52.58l75.269-15.37" stroke="#4A4A4A" stroke-width="2" stroke-linecap="round" stroke-linejoin="round"/><g><path d="M87.918 52.668l33.833-7.5 4.167-1.833 4.167-.834 3.666.667 19.665-4.19 3.908-2.57 4.594.76s9 16.167 1.333 33.667c-7.666 17.5-17.5 22.333-20.333 24.166-2.833 1.834-5.333 3.167-5.333 3.167l-49.667-45.5z" fill="#FFF"/><path fill="#ECECEC" d="M86.418 52.889l67-13.9 3.25 7.03.25 14.059-6.5 13.899-2.934 2.487-1.7 1.442-1.28 1.085-2.737 2.32-4.35 3.689-9.5 4.313z"/><path d="M151.98 71.814c-2.312 0-4.65-1.037-4.65-3.437s2.854-4.345 6.375-4.345c1.158 0 2.245.21 3.181.579" fill="#F8F8F8"/><path stroke="#4A4A4A" stroke-width="3" stroke-linecap="round" stroke-linejoin="round" d="M139.651 82.978l-2.562 2.15-8.834 4.051m18.538-12.103l-3.875 3.514m10.647-41.437l3.252 7.428.161 14.1-6.755 13.426m-12.849 24.315c25.092-13.814 35.501-38.328 24.752-60.879"/><path d="M87.024 52.58l35.091-7.266s2.536-1.807 5.136-2.313c3-.583 5.649.081 5.649.081l21.111-4.33s.688-2.095 3.5-2.595c2.813-.5 3.969 1.063 3.969 1.063M87.024 52.58l49.81 46.213" stroke="#4A4A4A" stroke-width="2" stroke-linecap="round" stroke-linejoin="round"/><path d="M139.579 70.177c0 3.449-4.102 6.245-9.161 6.245-5.06 0-9.161-2.796-9.161-6.245 0-3.45 4.1-6.245 9.16-6.245 5.06 0 9.162 2.796 9.162 6.245" fill="#F8F8F8"/><path d="M124.415 56.887c0 1.317-1.566 2.384-3.497 2.384-1.931 0-3.497-1.067-3.497-2.384s1.566-2.384 3.497-2.384c1.93 0 3.497 1.067 3.497 2.384zm23.738-8.017c0 2.538-3.019 4.596-6.743 4.596s-6.743-2.058-6.743-4.596c0-2.538 3.02-4.596 6.743-4.596 3.724 0 6.743 2.058 6.743 4.596z" stroke="#4A4A4A" stroke-width="2"/></g><g><path d="M87.084 52.835l41.162 36.004 6.88 2.954 2.458 6.375s-16.5 12.5-49.5 12.334c-33-.167-52.167-12.667-52.167-12.667l3.875-5.958 16.292-12.375s4.833-.5 7.167-3.834c2.333-3.333 2.333-4.833 2.333-4.833l21.5-18z" fill="#FFF"/><path fill="#ECECEC" d="M86.418 52.889l41.5 36.424-11.75 4.793-19 4.153-11.083-3.008-10.917 2.689-20.75-4.473-8.75-4.633z"/><path d="M97.793 89.774c0 2.4-2.854 4.345-6.375 4.345s-6.375-1.945-6.375-4.345c0-2.4 2.854-4.345 6.375-4.345 3.52 0 6.375 1.945 6.375 4.345m-22.75 2.897c0 2.4-2.854 4.345-6.375 4.345s-6.375-1.945-6.375-4.345c0-2.4 2.854-4.345 6.375-4.345 3.52 0 6.375 1.945 6.375 4.345" fill="#F8F8F8"/><path d="M128.255 89.18l-10.052 4.27-20.94 4.456s-3.72-2.28-10.97-2.405-11.104 2.45-11.104 2.45l-20.463-4.576-8.761-4.116" stroke="#4A4A4A" stroke-width="3" stroke-linecap="round" stroke-linejoin="round"/><path d="M137.918 97.814c-1.625 1.25-3.785 2.293-3.785 2.293-29.326 14.524-66.856 13.688-94.046.085l-4.388-2.41" stroke="#4A4A4A" stroke-width="3" stroke-linecap="round" stroke-linejoin="round"/><path d="M137.668 97.126s-.292-2.417-3-5.208c-2.708-2.792-6.422-3.08-6.422-3.08L87.024 52.58" stroke="#4A4A4A" stroke-width="2" stroke-linecap="round" stroke-linejoin="round"/><path d="M71.418 105.878c0 .565-.672 1.022-1.5 1.022s-1.5-.457-1.5-1.022.672-1.022 1.5-1.022 1.5.457 1.5 1.022m11.916 1.846c0 .565-.672 1.022-1.5 1.022s-1.5-.457-1.5-1.022.672-1.022 1.5-1.022 1.5.457 1.5 1.022" fill="#4A4A4A"/><path d="M93.99 67.81c0 1.801-2.14 3.26-4.782 3.26-2.641 0-4.782-1.459-4.782-3.26 0-1.8 2.14-3.26 4.782-3.26s4.783 1.46 4.783 3.26" fill="#F8F8F8"/><path d="M93.802 74.685c1.076-.496 2.374-.785 3.77-.785 3.724 0 6.743 2.058 6.743 4.596 0 2.54-3.02 4.597-6.743 4.597-3.724 0-6.743-2.058-6.743-4.597" stroke="#4A4A4A" stroke-width="2" stroke-linecap="round"/><path d="M38.376 92.835L87.024 52.58" stroke="#4A4A4A" stroke-width="2" stroke-linecap="round" stroke-linejoin="round"/></g><g><path d="M12.251 37.001l73.167 15.333-19.834 18.5s-1 4.5-4.166 6.834c-3.167 2.333-5.334 1.833-5.334 1.833l-21.5 18.333s-20.333-12.5-26-32c-5.666-19.5 3.667-28.833 3.667-28.833" fill="#FFF"/><path d="M86.418 52.889l-65.5-13.9-4.5 6.232-.25 14.378 6.25 13.259 13.25 11.662 10 4.314 10.34-9.121s3.66.413 6.285-2.337 3.213-6.041 3.213-6.041l20.912-18.446z" fill="#ECECEC"/><path stroke="#4A4A4A" stroke-width="3" stroke-linecap="round" stroke-linejoin="round" d="M41.043 86.82L36.5 84.47 23.398 73.124 16.51 59.725l.486-13.848 3.42-6.595m-8.748-1.447c-10.03 20.697-1.933 45.29 24.008 60.018"/><path d="M87.024 52.58l-21.41 18.877s.179 1.42-2.821 4.92-6.397 3.208-6.397 3.208l-10.624 9.367s-3.104.174-5.979 2.924-4 5.875-4 5.875m20.526-51.513l30.706 6.341M12.324 37.501s1.99-.802 4.281-.344c2.292.46 4.167 1.761 4.167 1.761l30.297 6.236" stroke="#4A4A4A" stroke-width="2" stroke-linecap="round" stroke-linejoin="round"/><path d="M13.668 55.35c0 .566-.672 1.023-1.5 1.023s-1.5-.457-1.5-1.022.672-1.022 1.5-1.022 1.5.457 1.5 1.022" fill="#4A4A4A"/><path d="M44.079 56.714c0 3.45-4.102 6.245-9.161 6.245-5.06 0-9.161-2.796-9.161-6.245 0-3.449 4.1-6.245 9.16-6.245 5.06 0 9.162 2.796 9.162 6.245M57.19 73.406c0 1.8-2.141 3.26-4.783 3.26-2.641 0-4.782-1.46-4.782-3.26 0-1.801 2.14-3.26 4.782-3.26s4.783 1.459 4.783 3.26" fill="#F8F8F8"/><path d="M19.441 66.25c3.618-.6 6.986.912 7.867 3.379.698 1.956-.554 3.926-2.909 4.956" stroke="#4A4A4A" stroke-width="2" stroke-linecap="round"/><path d="M53.915 62.167c0 1.317-1.566 2.384-3.497 2.384-1.931 0-3.497-1.067-3.497-2.384s1.566-2.384 3.497-2.384c1.93 0 3.497 1.067 3.497 2.384z" stroke="#4A4A4A" stroke-width="2"/></g><g transform="translate(0 29)"><ellipse stroke="#4A4A4A" stroke-width="2" cx="182.852" cy="2.249" rx="2.251" ry="2.249"/><path d="M174.202 7.498a1.5 1.5 0 1 0 .001-3.002 1.5 1.5 0 0 0 0 3.002z" fill="#4A4A4A"/><ellipse fill="#4A4A4A" cx="166.501" cy="2.5" rx="1.501" ry="1.5"/><ellipse fill="#4A4A4A" cx="1.501" cy="53.5" rx="1.501" ry="1.5"/></g><g><path d="M308.043 1.876l.042 50.958-74.834-15.833s9.917-20 33.042-27.875 41.75-7.25 41.75-7.25" fill="#FFF"/><path d="M307.418 52.889l-30.316-6.433-5.205-1.104-29.98-6.362 3.5-7.508 12-10.544 17.75-8.307s6.334 2.62 11.918 1.12c5.583-1.5 9.583-5.114 9.583-5.114l11.25-.32-.5 44.572z" fill="#ECECEC"/><path d="M241.876 38.46l3.744-6.408 12.842-11.468 17.817-8.325s5.514 2.493 11.14 1.118c5.624-1.375 9.624-5.102 9.624-5.102l10.875.04m0-6.814c-32.552-.107-62.641 13.267-74.77 35.327" stroke="#4A4A4A" stroke-width="3" stroke-linecap="round" stroke-linejoin="round"/><path d="M307.918 1.501l.106 54.532" stroke="#4A4A4A" stroke-width="2" stroke-linecap="round" stroke-linejoin="round"/><path d="M288.418 6.84c0 .566-.672 1.022-1.5 1.022s-1.5-.457-1.5-1.022c0-.564.672-1.021 1.5-1.021s1.5.457 1.5 1.021m-28 10.339c0 .565-.672 1.022-1.5 1.022s-1.5-.457-1.5-1.022.672-1.022 1.5-1.022 1.5.457 1.5 1.022" fill="#4A4A4A"/><path d="M295.972 21.02c0 2.4-2.854 4.344-6.375 4.344-3.52 0-6.375-1.945-6.375-4.345 0-2.4 2.854-4.345 6.375-4.345s6.375 1.945 6.375 4.345m-5.614 19.273c0 1.8-2.14 3.26-4.783 3.26-2.64 0-4.782-1.46-4.782-3.26 0-1.801 2.141-3.26 4.782-3.26 2.642 0 4.783 1.459 4.783 3.26" fill="#F8F8F8"/><path d="M271.66 36.596c-3.723 0-6.742-2.058-6.742-4.596 0-2.54 3.019-4.596 6.743-4.596s6.743 2.057 6.743 4.596m-.844 14.55l29.857 6.339" stroke="#4A4A4A" stroke-width="2" stroke-linecap="round"/><path d="M232.584 37.001l39.417 8.401" stroke="#4A4A4A" stroke-width="2" stroke-linecap="round" stroke-linejoin="round"/><path d="M308.084 52.835l34.667-7.667s3.916-2.166 6.416-2.416c2.5-.25 5.584.416 5.584.416l28.166-6s-9.875-20.416-30.75-27.541-44.125-7.75-44.125-7.75l.042 50.958" fill="#FFF"/><path fill="#FF0083" d="M307.418 52.889l67-13.9-2.5-6.07-13-11.821-17.75-8.307-17.497-3.682-3.003-.632-3.628-.045-9.122-.114z"/><path d="M345.579 15.986c0 3.449-4.102 6.245-9.161 6.245-5.06 0-9.161-2.796-9.161-6.245 0-1.944 1.303-3.68 3.346-4.826" fill="#B40060"/><path stroke="#4A4A4A" stroke-width="3" stroke-linecap="round" stroke-linejoin="round" d="M329.568 10.575l11.451 2.318 17.898 8.254 12.347 11.385 3.301 6.621M307.918 8.315l12.062.319m62.521 28.367c-10.267-21.899-38.334-35.5-74.583-35.5"/><path d="M308.024 52.58l-.106-51.08" stroke="#4A4A4A" stroke-width="2" stroke-linecap="round" stroke-linejoin="round"/><path d="M365.584 20.587c0 .565-.672 1.022-1.5 1.022s-1.5-.457-1.5-1.022.672-1.022 1.5-1.022 1.5.457 1.5 1.022" fill="#4A4A4A"/><path d="M329.45 44.445c0 1.8-2.14 3.26-4.783 3.26-2.64 0-4.782-1.46-4.782-3.26 0-1.801 2.141-3.26 4.782-3.26 2.642 0 4.783 1.459 4.783 3.26m18.592-6.113c0 1.801-2.141 3.26-4.783 3.26-2.641 0-4.782-1.459-4.782-3.26 0-1.8 2.14-3.26 4.782-3.26s4.783 1.46 4.783 3.26" fill="#B40060"/><path d="M344.745 27.402c0 1.317-1.566 2.384-3.497 2.384-1.93 0-3.497-1.067-3.497-2.384s1.566-2.384 3.497-2.384c1.931 0 3.497 1.067 3.497 2.384z" stroke="#4A4A4A" stroke-width="2"/><path d="M308.024 52.58l75.269-15.37" stroke="#4A4A4A" stroke-width="2" stroke-linecap="round" stroke-linejoin="round"/><g><path d="M308.918 52.668l33.833-7.5 4.167-1.833 4.167-.834 3.666.667 19.665-4.19 3.908-2.57 4.594.76s9 16.167 1.333 33.667c-7.666 17.5-17.5 22.333-20.333 24.166-2.833 1.834-5.333 3.167-5.333 3.167l-49.667-45.5z" fill="#FFF"/><path fill="#FF0083" d="M307.418 52.889l36.4-7.551 4.538-2.167h5.905l20.157-4.181 3.25 7.03.25 14.058-6.5 13.899-2.934 2.487-1.7 1.442-1.28 1.085-2.737 2.32-4.35 3.689-9.5 4.313z"/><path d="M372.98 71.814c-2.312 0-4.65-1.037-4.65-3.437s2.854-4.345 6.375-4.345c1.158 0 2.245.21 3.181.579" fill="#B40060"/><path stroke="#4A4A4A" stroke-width="3" stroke-linecap="round" stroke-linejoin="round" d="M360.651 82.978l-2.562 2.15-8.834 4.051m18.538-12.103l-3.875 3.514m10.647-41.437l3.252 7.428.161 14.1-6.755 13.426m-12.849 24.315c25.092-13.814 35.501-38.328 24.752-60.879"/><path d="M308.024 52.58l35.091-7.266s2.536-1.807 5.136-2.313c3-.583 5.649.081 5.649.081l21.111-4.33s.688-2.095 3.5-2.595c2.813-.5 3.969 1.063 3.969 1.063m-74.456 15.36l49.81 46.213" stroke="#4A4A4A" stroke-width="2" stroke-linecap="round" stroke-linejoin="round"/><path d="M360.579 70.177c0 3.449-4.102 6.245-9.161 6.245-5.06 0-9.161-2.796-9.161-6.245 0-3.45 4.1-6.245 9.16-6.245 5.06 0 9.162 2.796 9.162 6.245" fill="#B40060"/><path d="M345.415 56.887c0 1.317-1.566 2.384-3.497 2.384-1.931 0-3.497-1.067-3.497-2.384s1.566-2.384 3.497-2.384c1.93 0 3.497 1.067 3.497 2.384zm23.738-8.017c0 2.538-3.019 4.596-6.743 4.596s-6.743-2.058-6.743-4.596c0-2.538 3.02-4.596 6.743-4.596 3.724 0 6.743 2.058 6.743 4.596z" stroke="#4A4A4A" stroke-width="2"/></g><g><path d="M308.084 52.835l41.162 36.004 6.88 2.954 2.458 6.375s-16.5 12.5-49.5 12.334c-33-.167-52.167-12.667-52.167-12.667l3.875-5.958 16.292-12.375s4.833-.5 7.167-3.834c2.333-3.333 2.333-4.833 2.333-4.833l21.5-18z" fill="#FFF"/><path fill="#FF0083" d="M307.418 52.889l41.5 36.424-11.75 4.793-19 4.153-11.083-3.008-10.917 2.689-20.75-4.473-8.75-4.633z"/><path d="M318.793 89.774c0 2.4-2.854 4.345-6.375 4.345s-6.375-1.945-6.375-4.345c0-2.4 2.854-4.345 6.375-4.345 3.52 0 6.375 1.945 6.375 4.345m-22.75 2.897c0 2.4-2.854 4.345-6.375 4.345s-6.375-1.945-6.375-4.345c0-2.4 2.854-4.345 6.375-4.345 3.52 0 6.375 1.945 6.375 4.345" fill="#B40060"/><path d="M349.255 89.18l-10.052 4.27-20.94 4.456s-3.72-2.28-10.97-2.405-11.104 2.45-11.104 2.45l-20.463-4.576-8.761-4.116" stroke="#4A4A4A" stroke-width="3" stroke-linecap="round" stroke-linejoin="round"/><path d="M358.918 97.814c-1.625 1.25-3.785 2.293-3.785 2.293-29.326 14.524-66.856 13.688-94.046.085l-4.388-2.41" stroke="#4A4A4A" stroke-width="3" stroke-linecap="round" stroke-linejoin="round"/><path d="M358.668 97.126s-.292-2.417-3-5.208c-2.708-2.792-6.422-3.08-6.422-3.08L308.024 52.58" stroke="#4A4A4A" stroke-width="2" stroke-linecap="round" stroke-linejoin="round"/><path d="M292.418 105.878c0 .565-.672 1.022-1.5 1.022s-1.5-.457-1.5-1.022.672-1.022 1.5-1.022 1.5.457 1.5 1.022m11.916 1.846c0 .565-.672 1.022-1.5 1.022s-1.5-.457-1.5-1.022.672-1.022 1.5-1.022 1.5.457 1.5 1.022" fill="#4A4A4A"/><path d="M314.99 67.81c0 1.801-2.14 3.26-4.783 3.26-2.64 0-4.782-1.459-4.782-3.26 0-1.8 2.141-3.26 4.782-3.26 2.642 0 4.783 1.46 4.783 3.26" fill="#B40060"/><path d="M314.802 74.685c1.076-.496 2.374-.785 3.77-.785 3.724 0 6.743 2.058 6.743 4.596 0 2.54-3.02 4.597-6.743 4.597-3.724 0-6.743-2.058-6.743-4.597" stroke="#4A4A4A" stroke-width="2" stroke-linecap="round"/><path d="M259.376 92.835l48.648-40.255" stroke="#4A4A4A" stroke-width="2" stroke-linecap="round" stroke-linejoin="round"/></g><g><path d="M233.251 37.001l73.167 15.333-19.834 18.5s-1 4.5-4.166 6.834c-3.167 2.333-5.334 1.833-5.334 1.833l-21.5 18.333s-20.333-12.5-26-32c-5.666-19.5 3.667-28.833 3.667-28.833" fill="#FFF"/><path d="M307.418 52.889l-65.5-13.9-4.5 6.232-.25 14.378 6.25 13.259 13.25 11.662 10 4.314 10.34-9.121s3.66.413 6.285-2.337 3.213-6.041 3.213-6.041l20.912-18.446z" fill="#FF0083"/><path stroke="#4A4A4A" stroke-width="3" stroke-linecap="round" stroke-linejoin="round" d="M262.043 86.82l-4.543-2.35-13.103-11.347-6.887-13.399.486-13.848 3.42-6.595m-8.748-1.446c-10.03 20.697-1.933 45.29 24.008 60.018"/><path d="M308.024 52.58l-21.41 18.877s.179 1.42-2.821 4.92-6.397 3.208-6.397 3.208l-10.624 9.367s-3.104.174-5.979 2.924-4 5.875-4 5.875m20.525-51.513l30.706 6.341m-74.7-15.078s1.99-.802 4.281-.344c2.292.46 4.167 1.761 4.167 1.761l30.297 6.236" stroke="#4A4A4A" stroke-width="2" stroke-linecap="round" stroke-linejoin="round"/><path d="M234.668 55.35c0 .566-.672 1.023-1.5 1.023s-1.5-.457-1.5-1.022.672-1.022 1.5-1.022 1.5.457 1.5 1.022" fill="#4A4A4A"/><path d="M265.079 56.714c0 3.45-4.102 6.245-9.161 6.245-5.06 0-9.161-2.796-9.161-6.245 0-3.449 4.1-6.245 9.16-6.245 5.06 0 9.162 2.796 9.162 6.245m13.111 16.692c0 1.8-2.141 3.26-4.783 3.26-2.641 0-4.782-1.46-4.782-3.26 0-1.801 2.14-3.26 4.782-3.26s4.783 1.459 4.783 3.26" fill="#B40060"/><path d="M240.441 66.25c3.618-.6 6.986.912 7.867 3.379.698 1.956-.554 3.926-2.909 4.956" stroke="#4A4A4A" stroke-width="2" stroke-linecap="round"/><path d="M274.915 62.167c0 1.317-1.566 2.384-3.497 2.384-1.931 0-3.497-1.067-3.497-2.384s1.566-2.384 3.497-2.384c1.93 0 3.497 1.067 3.497 2.384z" stroke="#4A4A4A" stroke-width="2"/></g><g transform="translate(232 83)"><ellipse stroke="#4A4A4A" stroke-width="2" cx="14.251" cy="19.249" rx="2.251" ry="2.249"/><ellipse fill="#4A4A4A" cx="154.501" cy="1.5" rx="1.501" ry="1.5"/><ellipse fill="#4A4A4A" cx="1.501" cy="17.5" rx="1.501" ry="1.5"/></g></g><g><path d="M463.168 104.179l5.875-4.25-.125-7.125s-4.875-.375-7.125 2.375-3.25 7.25-3.25 7.25l4.625 1.75z" fill="#F8F8F8"/><path d="M469.168 99.304l-.375-5.375 10.125-9.875s5.5-.25 7.125-3.25l1.625-3 22.375-20.5s2.5 1.625-.125 4.5-40.75 37.5-40.75 37.5" fill="#ECECEC"/><path d="M435.251 41.929l73.167 15.333-19.834 18.5s-1 4.5-4.166 6.834c-3.167 2.333-5.334 1.833-5.334 1.833l-10.774 9.188-6.517 1.562-4.209 7.583s-20.333-12.5-26-32c-5.666-19.5 3.667-28.833 3.667-28.833" fill="#FFF"/><path d="M509.418 57.816l-65.5-13.899-4.5 6.231-.25 14.378 6.25 13.26 13.25 11.661 10 4.314 10.34-9.12s3.66.412 6.285-2.338 3.213-6.04 3.213-6.04l20.912-18.447z" fill="#FF0083"/><path stroke="#4A4A4A" stroke-width="3" stroke-linecap="round" stroke-linejoin="round" d="M455.788 86.183l-9.39-8.132-6.887-13.398.487-13.848 3.42-6.596m25.25 49.552l-9.167-4.362m-24.833-46.637c-10.03 20.697-1.933 45.29 24.008 60.018"/><path d="M510.024 57.507l-21.41 18.878s.179 1.419-2.821 4.919c-3 3.5-6.397 3.209-6.397 3.209l-10.624 9.367s-4.188-1.784-7.354 1.549c-3.167 3.333-2.625 7.25-2.625 7.25" stroke="#4A4A4A" stroke-width="2" stroke-linecap="round" stroke-linejoin="round"/><path d="M479.318 51.166l30.706 6.34m-74.981-15.452s2.25-1 4.687-.312c2.438.687 4.195 2.139 4.195 2.139l30.144 6.2" stroke="#4A4A4A" stroke-width="3" stroke-linecap="round" stroke-linejoin="round"/><path d="M436.668 60.279c0 .564-.672 1.021-1.5 1.021s-1.5-.456-1.5-1.021c0-.566.672-1.023 1.5-1.023s1.5.458 1.5 1.023" fill="#4A4A4A"/><path d="M467.079 61.642c0 3.449-4.102 6.245-9.161 6.245-5.06 0-9.161-2.796-9.161-6.245 0-3.45 4.1-6.245 9.16-6.245 5.06 0 9.162 2.796 9.162 6.245m13.111 16.691c0 1.801-2.141 3.26-4.783 3.26-2.641 0-4.782-1.459-4.782-3.26 0-1.8 2.14-3.26 4.782-3.26s4.783 1.46 4.783 3.26" fill="#B40060"/><path d="M442.441 71.177c3.618-.6 6.986.912 7.867 3.38.698 1.955-.554 3.925-2.909 4.955" stroke="#4A4A4A" stroke-width="2" stroke-linecap="round"/><path d="M476.915 67.095c0 1.317-1.566 2.384-3.497 2.384-1.931 0-3.497-1.067-3.497-2.384s1.566-2.384 3.497-2.384c1.93 0 3.497 1.067 3.497 2.384z" stroke="#4A4A4A" stroke-width="2"/><path stroke="#4A4A4A" stroke-width="3" stroke-linecap="round" stroke-linejoin="round" d="M458.676 102.78l3.992 1.774 6-4.875.105-5.8m.375 4.974l38.52-34.799s7.75-6.6 1.75-6.238"/><g transform="translate(495 76)"><ellipse stroke="#4A4A4A" stroke-width="2" cx="18.251" cy="9.249" rx="2.251" ry="2.249"/><ellipse fill="#4A4A4A" cx="1.501" cy="7.5" rx="1.501" ry="1.5"/><ellipse fill="#4A4A4A" cx="93.501" cy="8.5" rx="1.501" ry="1.5"/><ellipse fill="#4A4A4A" cx="14.501" cy="1.5" rx="1.501" ry="1.5"/></g><path d="M580.403 82.822c0 6.253-13.38 11.322-29.884 11.322-16.505 0-29.885-5.07-29.885-11.322 0-6.253 13.38-11.322 29.885-11.322 16.504 0 29.884 5.069 29.884 11.322" fill="#ECECEC"/><path d="M525.5 24c0-9.665 11.193-17.5 25-17.5 6.904 0 13.154 1.959 17.678 5.126" stroke="#4A4A4A" stroke-width="3" stroke-linecap="round" stroke-linejoin="round"/><path d="M570.5 79.75c0 7.318-8.954 13.25-20 13.25s-20-5.932-20-13.25c0-4.574-4.833-50.917-4.833-50.917S533 41.5 550.5 41.5c17.667 0 24.833-12.5 24.833-12.5S570.5 75.618 570.5 79.75" fill="#ECECEC"/><path d="M575.5 34c0 9.665-11.193 17.5-25 17.5s-25-7.835-25-17.5 11.193-17.5 25-17.5c3.556 0 6.939.52 10.002 1.457 0 0-7.935 12.052-5.002 14.003 1.188.79 19.625-1.148 19.747-.46.145.82.253 1.651.253 2.5" fill="#F8F8F8"/><path d="M565.5 86.5l-19.702-54.404" stroke="#B7B7B7" stroke-width="3" stroke-linecap="round" stroke-linejoin="round"/><path d="M555.5 29c0 9.665 8.954 17.5 20 17.5" stroke="#B7B7B7" stroke-width="3"/><path d="M570.5 79c0 7.732-8.954 14-20 14s-20-6.268-20-14m-5-54.5l5 55m44.609-51.953l-4.61 51.953" stroke="#4A4A4A" stroke-width="3" stroke-linecap="round" stroke-linejoin="round"/><path d="M550.5 41.5c-13.807 0-25-7.835-25-17.5m49.622 3.047c-2.06 8.212-12.3 14.453-24.622 14.453m5-9.54h18.2" stroke="#4A4A4A" stroke-width="2" stroke-linecap="round" stroke-linejoin="round"/><path d="M555.703 31.5a15.54 15.54 0 0 1-.203-2.5c0-9.665 8.955-17.5 20-17.5 11.046 0 20 7.835 20 17.5s-8.954 17.5-20 17.5" stroke="#4A4A4A" stroke-width="3" stroke-linecap="round" stroke-linejoin="round"/><path d="M568.333 25.167c0 1.154-1.119 2.09-2.5 2.09-1.38 0-2.5-.936-2.5-2.09s1.12-2.09 2.5-2.09c1.381 0 2.5.936 2.5 2.09m12.334-5.5c0 1.154-1.12 2.09-2.5 2.09-1.381 0-2.5-.936-2.5-2.09s1.119-2.09 2.5-2.09c1.38 0 2.5.936 2.5 2.09m8.833 7.666c0 1.154-1.119 2.09-2.5 2.09s-2.5-.936-2.5-2.09 1.119-2.09 2.5-2.09 2.5.936 2.5 2.09m-5.167 9.834c0 1.154-1.119 2.09-2.5 2.09-1.38 0-2.5-.936-2.5-2.09s1.12-2.09 2.5-2.09c1.381 0 2.5.936 2.5 2.09" fill="#ECECEC"/><path d="M515.5 1.5l20 10m10.298 20.596L535.5 11.5" stroke="#4A4A4A" stroke-width="3" stroke-linecap="round" stroke-linejoin="round"/></g></g></svg>
