<svg width="1777" height="212" viewBox="0 0 1777 212" xmlns="http://www.w3.org/2000/svg"><title>-Clouds Layer 2</title><g stroke="#FFF" stroke-width="2" fill="#F7F7F7" fill-rule="evenodd" stroke-linecap="round" stroke-linejoin="round"><path d="M619.057 67.097c2.5-4.788 7.504-8.06 13.279-8.06 2.86 0 5.523.815 7.795 2.205C642.948 52.964 650.77 47 660 47c11.598 0 21 9.402 21 21 0 11.597-9.402 21-21 21-6.013 0-11.423-2.541-15.25-6.593C648.577 86.46 653.987 89 660 89h-27.664a14.895 14.895 0 0 1-8.97-3.003"/><path d="M635.033 89h-19.281c-6.185 0-11.2-5.015-11.2-11.2s5.015-11.2 11.2-11.2c1.15 0 2.26.175 3.305.497M1300.057 142.097c2.5-4.788 7.504-8.06 13.279-8.06 2.86 0 5.523.815 7.795 2.205C1323.948 127.964 1331.77 122 1341 122c11.598 0 21 9.402 21 21 0 11.597-9.402 21-21 21-6.013 0-11.423-2.541-15.25-6.593 3.827 4.052 9.237 6.593 15.25 6.593h-27.664a14.895 14.895 0 0 1-8.97-3.003"/><path d="M1316.033 164h-19.281c-6.185 0-11.2-5.015-11.2-11.2s5.015-11.2 11.2-11.2c1.15 0 2.26.175 3.305.497"/></g></svg>